# xmcd CD database file
#
# Track frame offsets:
#	182
#	13235
#	26330
#	41010
#	56260
#	72275
#	85857
#	98462
#	110535
#	125672
#	138970
#	154232
#	165720
#	177772
#	191477
#	205917
#
# Disc length: 2917 seconds
#
# Revision: 1
# Processed by: cddbd v1.5.1PL0 Copyright (c) Steve Scherf et al.
# Submitted via: CDex 1.51
#
DISCID=d00b6310
DTITLE=Fats Waller - The Indispensable Fats Waller - Vol 1/2 [CD1)
DYEAR=1994
DGENRE=Jazz
TTITLE0=St Louis Blues
TTITLE1=Soothin' Syrup Stomp
TTITLE2=Beale Street Blues
TTITLE3=Fats Waller Stomp
TTITLE4=Willow Tree
TTITLE5=Thou Swell
TTITLE6=Handfull Of Keys
TTITLE7=The minor Drag
TTITLE8=Harlem Fuss
TTITLE9=Gladyse
TTITLE10=Valentine Stomp
TTITLE11=Lookin' Good But Feelin' Bad
TTITLE12=I Wish I Were Twins
TTITLE13=Armful Of Sweetness
TTITLE14=Do Me A Favor
TTITLE15=Don't Let It Bother You
EXTD=YEAR: 1994
EXTT0=
EXTT1=
EXTT2=
EXTT3=
EXTT4=
EXTT5=
EXTT6=
EXTT7=
EXTT8=
EXTT9=
EXTT10=
EXTT11=
EXTT12=
EXTT13=
EXTT14=
EXTT15=
PLAYORDER=
